{
  "accessors": [
    {
      "bufferView": 3,
      "componentType": 5126,
      "count": 1591,
      "max": [
        2.2871196269989014,
        0.40118867158889771,
        0.39715880155563354
      ],
      "min": [
        1.2622572183609009,
        -0.16064049303531647,
        0.16037851572036743
      ],
      "type": "VEC3"
    },
    {
      "bufferView": 3,
      "byteOffset": 19092,
      "componentType": 5126,
      "count": 1591,
      "max": [
        1,
        0.9999995231628418,
        0.9996296763420105
      ],
      "min": [
        -0.98276627063751221,
        -0.9999924898147583,
        -0.9996296763420105
      ],
      "type": "VEC3"
    },
    {
      "bufferView": 2,
      "componentType": 5126,
      "count": 1591,
      "max": [
        0.97727161645889282,
        0.98380601406097412
      ],
      "min": [
        0.00035175177617929876,
        0.019571423530578613
      ],
      "type": "VEC2"
    },
    {
      "bufferView": 1,
      "componentType": 5125,
      "count": 6468,
      "max": [
        1590
      ],
      "min": [
        0
      ],
      "type": "SCALAR"
    },
    {
      "bufferView": 5,
      "componentType": 5126,
      "count": 26,
      "max": [
        1.7722707986831665,
        1.7722705602645874,
        0.1106816902756691,
        0,
        0.89645618200302124,
        1.4595996141433716,
        1.7722165584564209,
        0,
        1.7722709178924561,
        0.77725046873092651,
        1.7722710371017456,
        0,
        2.8655509948730469,
        5.4508762359619141,
        2.9901328086853027,
        1
      ],
      "min": [
        -1.7722707986831665,
        -1.7722709178924561,
        -1.7569267749786377,
        0,
        -0.89645618200302124,
        -1.7722711563110352,
        -1.7722709178924561,
        0,
        -1.77159583568573,
        -0.77725046873092651,
        -1.7722710371017456,
        0,
        -2.8655507564544678,
        -3.994154691696167,
        -0.62854057550430298,
        1
      ],
      "type": "MAT4"
    },
    {
      "bufferView": 0,
      "componentType": 5123,
      "count": 1591,
      "max": [
        25,
        25,
        24,
        24
      ],
      "min": [
        2,
        2,
        2,
        2
      ],
      "type": "VEC4"
    },
    {
      "bufferView": 4,
      "componentType": 5126,
      "count": 1591,
      "max": [
        1,
        0.49021342396736145,
        0.29363644123077393,
        0.20824742317199707
      ],
      "min": [
        0.29121017456054688,
        0,
        0,
        0
      ],
      "type": "VEC4"
    }
  ],
  "asset": {
    "extras": {
      "author": "Cabritta (https://sketchfab.com/Cabritta)",
      "license": "CC-BY-4.0 (http://creativecommons.org/licenses/by/4.0/)",
      "source": "https://sketchfab.com/3d-models/black-cat-8d09d2fbabab443c9b451b3d2a3048f0",
      "title": "Black Cat"
    },
    "generator": "Sketchfab-8.59.0",
    "version": "2.0"
  },
  "bufferViews": [
    {
      "buffer": 0,
      "byteLength": 12728,
      "byteOffset": 0,
      "byteStride": 8,
      "name": "shortBufferViews",
      "target": 34962
    },
    {
      "buffer": 0,
      "byteLength": 25872,
      "byteOffset": 12728,
      "name": "floatBufferViews",
      "target": 34963
    },
    {
      "buffer": 0,
      "byteLength": 12728,
      "byteOffset": 38600,
      "byteStride": 8,
      "name": "floatBufferViews",
      "target": 34962
    },
    {
      "buffer": 0,
      "byteLength": 38184,
      "byteOffset": 51328,
      "byteStride": 12,
      "name": "floatBufferViews",
      "target": 34962
    },
    {
      "buffer": 0,
      "byteLength": 25456,
      "byteOffset": 89512,
      "byteStride": 16,
      "name": "floatBufferViews",
      "target": 34962
    },
    {
      "buffer": 0,
      "byteLength": 1664,
      "byteOffset": 114968,
      "byteStride": 64,
      "name": "floatBufferViews"
    }
  ],
  "buffers": [
    {
      "byteLength": 116632,
      "uri": "scene.bin"
    }
  ],
  "images": [
    {
      "uri": "textures/gatim_baseColor.jpeg"
    }
  ],
  "materials": [
    {
      "doubleSided": false,
      "emissiveFactor": [
        0,
        0,
        0
      ],
      "name": "gatim",
      "pbrMetallicRoughness": {
        "baseColorFactor": [
          1,
          1,
          1,
          1
        ],
        "baseColorTexture": {
          "index": 0,
          "texCoord": 0
        },
        "metallicFactor": 0,
        "roughnessFactor": 1
      }
    }
  ],
  "meshes": [
    {
      "primitives": [
        {
          "attributes": {
            "JOINTS_0": 5,
            "NORMAL": 1,
            "POSITION": 0,
            "TEXCOORD_0": 2,
            "WEIGHTS_0": 6
          },
          "indices": 3,
          "material": 0,
          "mode": 4
        }
      ]
    }
  ],
  "nodes": [
    {
      "children": [
        1
      ],
      "name": "RootNode (gltf orientation matrix)",
      "rotation": [
        -0.70710678118654746,
        -0,
        -0,
        0.70710678118654757
      ]
    },
    {
      "children": [
        2
      ],
      "name": "RootNode (model correction matrix)"
    },
    {
      "children": [
        3
      ],
      "name": "root"
    },
    {
      "children": [
        4
      ],
      "matrix": [
        1,
        0,
        0,
        0,
        0,
        2.2204460492503131e-16,
        1,
        0,
        0,
        -1,
        2.2204460492503131e-16,
        0,
        0,
        0,
        0,
        1
      ],
      "name": "GLTF_SceneRootNode"
    },
    {
      "children": [
        5
      ],
      "matrix": [
        0,
        0,
        0.56424784660339355,
        0,
        -0.56424784660339355,
        0,
        0,
        0,
        0,
        -0.56424784660339355,
        0,
        0,
        3.0756452083587646,
        0.15999099612236023,
        0.2783207893371582,
        1
      ],
      "name": "Armature.002_26"
    },
    {
      "children": [
        6,
        8,
        7
      ],
      "name": "GLTF_created_0"
    },
    {
      "children": [
        9
      ],
      "name": "GLTF_created_0_rootJoint"
    },
    {
      "name": "Gatinho_25"
    },
    {
      "mesh": 0,
      "name": "",
      "skin": 0
    },
    {
      "children": [
        10,
        21
      ],
      "name": "main_24",
      "scale": [
        7.4105024337768555,
        7.4105024337768555,
        7.4105024337768555
      ],
      "translation": [
        -0.7544323205947876,
        -19.492095947265625,
        -3.0621814727783203
      ]
    },
    {
      "children": [
        11,
        15,
        18
      ],
      "name": "chest_10",
      "rotation": [
        0.30951666831970215,
        0.056956171989440918,
        -0.01322622038424015,
        0.94909459352493286
      ],
      "scale": [
        0.99999994039535522,
        1,
        1
      ],
      "translation": [
        1.6438811201169301e-08,
        2.4906289577484131,
        0.020171560347080231
      ]
    },
    {
      "children": [
        12
      ],
      "name": "neck_3",
      "rotation": [
        -0.08811178058385849,
        0.076452359557151794,
        0.013042189180850983,
        0.99308675527572632
      ],
      "scale": [
        1,
        0.99999988079071045,
        0.99999994039535522
      ],
      "translation": [
        0,
        0.30750942230224609,
        0
      ]
    },
    {
      "children": [
        13,
        14
      ],
      "name": "head_2",
      "rotation": [
        -0.34565788507461548,
        -0.073079876601696014,
        -0.013006550259888172,
        0.93542015552520752
      ],
      "scale": [
        0.99999994039535522,
        1,
        1
      ],
      "translation": [
        -8.8817841970012523e-16,
        0.16175651550292969,
        -1.1175870895385742e-08
      ]
    },
    {
      "name": "ear.l_0",
      "rotation": [
        -0.52659529447555542,
        -0.066837184131145477,
        -0.31781935691833496,
        0.78563416004180908
      ],
      "scale": [
        0.99999994039535522,
        0.99999994039535522,
        0.99999994039535522
      ],
      "translation": [
        0.066595546901226044,
        0.23159521818161011,
        -0.051004931330680847
      ]
    },
    {
      "name": "ear.r_1",
      "rotation": [
        -0.5032726526260376,
        0.052208017557859421,
        0.31098037958145142,
        0.80453848838806152
      ],
      "scale": [
        0.99999994039535522,
        1,
        0.99999994039535522
      ],
      "translation": [
        -0.066595539450645447,
        0.23159521818161011,
        -0.051004931330680847
      ]
    },
    {
      "children": [
        16
      ],
      "name": "front shoulder.l_6",
      "rotation": [
        -0.028082102537155151,
        0.66309809684753418,
        -0.029190631583333015,
        0.74743586778640747
      ],
      "scale": [
        0.99999994039535522,
        1,
        0.99999994039535522
      ],
      "translation": [
        0.12326397746801376,
        0.37249767780303955,
        0.039212636649608612
      ]
    },
    {
      "children": [
        17
      ],
      "name": "front leg.l_5",
      "rotation": [
        -0.040212314575910568,
        0.61115872859954834,
        -0.15838012099266052,
        0.77445709705352783
      ],
      "scale": [
        1,
        1.0000001192092896,
        1.0000001192092896
      ],
      "translation": [
        -5.251569401565348e-09,
        0.22958555817604065,
        -2.9258586664582253e-09
      ]
    },
    {
      "name": "front paw.l_4",
      "rotation": [
        0.11322192847728729,
        -0.96634966135025024,
        -0.15937739610671997,
        0.16717657446861267
      ],
      "scale": [
        1.0000001192092896,
        1,
        1.0000002384185791
      ],
      "translation": [
        -1.862645149230957e-09,
        0.27431803941726685,
        1.885928213596344e-08
      ]
    },
    {
      "children": [
        19
      ],
      "name": "front shoulder.r_9",
      "rotation": [
        0.064592882990837097,
        -0.77037906646728516,
        0.12960462272167206,
        0.62092387676239014
      ],
      "scale": [
        0.99999988079071045,
        0.99999994039535522,
        1
      ],
      "translation": [
        -0.1025908961892128,
        0.3052411675453186,
        -0.0077177789062261581
      ]
    },
    {
      "children": [
        20
      ],
      "name": "front leg.r_8",
      "rotation": [
        0.023326728492975235,
        -0.73019403219223022,
        0.071747630834579468,
        0.67906177043914795
      ],
      "scale": [
        1,
        1.0000001192092896,
        1
      ],
      "translation": [
        5.251569401565348e-09,
        0.22958555817604065,
        -2.9258586664582253e-09
      ]
    },
    {
      "name": "front paw.r_7",
      "rotation": [
        -0.02316696010529995,
        -0.96826547384262085,
        -0.18340681493282318,
        0.16818854212760925
      ],
      "scale": [
        1,
        0.99999994039535522,
        1.0000001192092896
      ],
      "translation": [
        1.862645149230957e-09,
        0.27431803941726685,
        1.885928213596344e-08
      ]
    },
    {
      "children": [
        22,
        28,
        31
      ],
      "name": "hip_23",
      "rotation": [
        -0.96333587169647217,
        0.011274812743067741,
        0.039966899901628494,
        0.26506531238555908
      ],
      "scale": [
        1.0000002384185791,
        1.0000067949295044,
        1.0000237226486206
      ],
      "translation": [
        1.0136020023310266e-08,
        2.4906289577484131,
        0.020171524956822395
      ]
    },
    {
      "children": [
        23
      ],
      "name": "tail 1_16",
      "rotation": [
        -0.046671666204929352,
        0,
        0,
        0.99891030788421631
      ],
      "scale": [
        1,
        1.0000001192092896,
        1
      ],
      "translation": [
        0,
        0.34668484330177307,
        6.5192580223083496e-09
      ]
    },
    {
      "children": [
        24
      ],
      "name": "tail2_15",
      "rotation": [
        0.25593173503875732,
        0.12046297639608383,
        0.10203898698091507,
        0.95371687412261963
      ],
      "scale": [
        0.99999994039535522,
        1,
        1
      ],
      "translation": [
        0,
        0.13463857769966125,
        -1.5723315982540953e-09
      ]
    },
    {
      "children": [
        25
      ],
      "name": "tail 3_14",
      "rotation": [
        -0.097796984016895294,
        0.054685845971107483,
        0.042622517794370651,
        0.99278825521469116
      ],
      "scale": [
        0.99999994039535522,
        0.99999994039535522,
        1
      ],
      "translation": [
        0,
        0.11910489946603775,
        -4.9266901669398067e-10
      ]
    },
    {
      "children": [
        26
      ],
      "name": "tail4_13",
      "rotation": [
        0.26011943817138672,
        0.03854065015912056,
        0.069411814212799072,
        0.96230685710906982
      ],
      "translation": [
        0,
        0.12773337960243225,
        -1.1526921639415377e-09
      ]
    },
    {
      "children": [
        27
      ],
      "name": "tail 5_12",
      "rotation": [
        -0.0053920713253319263,
        -0.010750707238912582,
        0.034017622470855713,
        0.99934893846511841
      ],
      "scale": [
        1,
        0.99999994039535522,
        0.99999994039535522
      ],
      "translation": [
        0,
        0.13981524109840393,
        -8.6530604903600761e-10
      ]
    },
    {
      "name": "tail 6_11",
      "rotation": [
        0.011078884825110435,
        0.0047151991166174412,
        0.0050908252596855164,
        0.99991452693939209
      ],
      "scale": [
        0.99999994039535522,
        0.99999994039535522,
        0.99999994039535522
      ],
      "translation": [
        0,
        0.16744032502174377,
        -5.5639759466430405e-10
      ]
    },
    {
      "children": [
        29
      ],
      "name": "back thigh.l_19",
      "rotation": [
        -0.67543637752532959,
        0.27033358812332153,
        -0.64479160308837891,
        0.23441284894943237
      ],
      "scale": [
        1,
        0.99999994039535522,
        0.99999982118606567
      ],
      "translation": [
        0.13497918844223022,
        0.23295882344245911,
        -0.050646618008613586
      ]
    },
    {
      "children": [
        30
      ],
      "name": "back leg.l_18",
      "rotation": [
        -0.235002800822258,
        0.67540520429611206,
        0.23995256423950195,
        0.6565244197845459
      ],
      "scale": [
        0.99999994039535522,
        1,
        1
      ],
      "translation": [
        -1.7531380080981762e-07,
        0.24837549030780792,
        8.3965012720454979e-10
      ]
    },
    {
      "name": "back paw.l_17",
      "rotation": [
        0.0094481613487005234,
        0.59987026453018188,
        0.80002361536026001,
        -0.0053498102352023125
      ],
      "scale": [
        0.99999988079071045,
        0.9999997615814209,
        0.99999988079071045
      ],
      "translation": [
        -2.0954757928848267e-08,
        0.28143048286437988,
        1.7485581338405609e-07
      ]
    },
    {
      "children": [
        32
      ],
      "name": "back thigh.r_22",
      "rotation": [
        -0.64479148387908936,
        -0.23441284894943237,
        0.67543643712997437,
        0.27033349871635437
      ],
      "scale": [
        0.99999994039535522,
        0.99999988079071045,
        0.99999988079071045
      ],
      "translation": [
        -0.13497918844223022,
        0.2416042685508728,
        -0.034795023500919342
      ]
    },
    {
      "children": [
        33
      ],
      "name": "back leg.r_21",
      "rotation": [
        -0.235002800822258,
        -0.67540520429611206,
        -0.23995256423950195,
        0.6565244197845459
      ],
      "scale": [
        0.99999994039535522,
        1,
        1
      ],
      "translation": [
        1.7531380080981762e-07,
        0.24837549030780792,
        8.3965012720454979e-10
      ]
    },
    {
      "name": "back paw.r_20",
      "rotation": [
        -0.0093302289023995399,
        0.5999266505241394,
        0.79992932081222534,
        0.010687023401260376
      ],
      "scale": [
        0.99999988079071045,
        0.99999970197677612,
        0.99999982118606567
      ],
      "translation": [
        2.0954757928848267e-08,
        0.28143048286437988,
        1.7485581338405609e-07
      ]
    }
  ],
  "samplers": [
    {
      "magFilter": 9729,
      "minFilter": 9987,
      "wrapS": 10497,
      "wrapT": 10497
    }
  ],
  "scene": 0,
  "scenes": [
    {
      "name": "OSG_Scene",
      "nodes": [
        0
      ]
    }
  ],
  "skins": [
    {
      "inverseBindMatrices": 4,
      "joints": [
        6,
        9,
        10,
        11,
        12,
        13,
        14,
        15,
        16,
        17,
        18,
        19,
        20,
        21,
        22,
        23,
        24,
        25,
        26,
        27,
        28,
        29,
        30,
        31,
        32,
        33
      ],
      "skeleton": 6
    }
  ],
  "textures": [
    {
      "sampler": 0,
      "source": 0
    }
  ]
}

